<svg width="380" height="380" viewBox="0 0 380 380" fill="none" xmlns="http://www.w3.org/2000/svg">
<path d="M380 0H0V380H380V0Z" fill="currentColor"/>
<mask id="mask0_367_1252" style="mask-type:luminance" maskUnits="userSpaceOnUse" x="0" y="0" width="380" height="380">
<path d="M380 0H0V380H380V0Z" fill="white"/>
</mask>
<g mask="url(#mask0_367_1252)">
<path d="M328.233 270.386C448.62 270.386 546.212 172.794 546.212 52.407C546.212 -67.9796 448.62 -165.572 328.233 -165.572C207.847 -165.572 110.254 -67.9796 110.254 52.407C110.254 172.794 207.847 270.386 328.233 270.386Z" fill="currentColor"/>
</g>
<path d="M62.0845 151.643C67.5135 151.643 70.2298 150.091 70.2298 146.794C70.2298 144.176 65.7683 142.044 56.9474 140.493C45.6037 138.455 39.7876 133.413 39.6891 125.366C39.6891 114.315 48.415 109.079 60.1458 108.886C66.7395 108.886 71.975 110.339 75.8524 113.249C79.6348 116.254 81.6685 120.423 81.9606 125.757H73.8152C70.8104 125.659 68.8717 124.592 68.0941 122.559C67.2215 120.328 64.6037 119.068 60.3358 119.068C55.2937 119.068 52.7745 120.426 52.7745 123.044C52.7745 125.662 56.0713 127.699 62.76 128.959C71.4859 130.704 77.2071 132.935 80.0184 135.553C82.4426 138.072 83.6072 141.175 83.6072 144.666C83.6072 157.269 73.7167 161.924 60.1422 161.924C52.968 161.924 47.5389 160.372 44.0485 157.367C40.1711 154.458 38.2324 150 38.2324 144.085H51.4198C51.7119 149.708 55.7828 151.646 62.0845 151.646V151.643Z" fill="white"/>
<path d="M128.785 160.953C124.52 160.661 122.385 158.627 122.385 154.553V128.181C122.093 122.847 119.186 120.229 113.465 120.229C107.744 120.229 104.838 122.847 104.739 128.181V160.953H91.6504V130.799C91.6504 116.159 99.0182 108.886 113.659 108.886C128.299 108.886 135.474 116.159 135.375 130.799V160.953H128.781H128.785Z" fill="white"/>
<path d="M189.867 135.549C189.867 153.194 182.014 162.114 166.5 162.114C150.987 162.114 143.232 153.194 143.232 135.549C143.232 117.904 150.987 108.886 166.5 108.886C182.014 108.886 189.867 117.71 189.867 135.549ZM156.321 135.549C156.42 145.535 159.812 150.577 166.405 150.577C172.999 150.577 176.296 145.341 176.391 135.162C176.391 125.176 173.094 120.229 166.5 120.229C159.907 120.229 156.321 125.366 156.321 135.549Z" fill="white"/>
<path d="M266.656 109.663L252.403 160.953H239.022L231.267 124.205L223.122 160.953H209.646L195.586 109.663H208.675L216.82 145.246L224.188 109.663H237.857L244.838 145.246L251.819 114.413C252.786 111.215 254.922 109.663 258.121 109.663H266.653H266.656Z" fill="white"/>
<path d="M87.0031 192.453V229.683C87.0031 245.097 78.9562 252.757 62.9575 252.662C47.0573 252.37 39.1055 243.743 39.1055 226.678C39.1055 209.613 45.8927 200.307 59.5621 199.821C65.9623 199.821 70.9058 202.439 74.2027 207.773V185.958H80.6029C84.0933 185.958 87.0031 188.963 87.0031 192.453ZM52.3914 226.097C52.2929 236.47 55.7868 241.709 63.1545 241.709C70.5223 241.709 74.2062 236.473 74.2062 226.097C73.9142 216.207 70.3288 211.362 63.3481 211.362C56.3673 211.362 52.7784 216.21 52.3914 226.097Z" fill="white"/>
<path d="M95.2402 225.421C95.6273 208.842 104.452 200.602 121.612 200.602H123.455V213.982H119.092C111.918 213.982 108.329 217.765 108.329 225.231V251.895H95.2402V225.425V225.421Z" fill="white"/>
<path d="M154.766 253.052C139.253 252.567 131.498 243.552 131.498 226.101C131.498 208.649 139.351 199.923 154.96 199.824C171.247 199.824 178.907 209.81 177.939 229.879H144.78C145.266 237.733 148.658 241.709 154.96 241.709C157.964 241.709 160.776 240.449 163.298 238.025C164.463 236.765 165.916 236.181 167.661 236.181H177.161C174.35 247.039 167.369 253.052 154.766 253.052ZM144.974 220.671H164.27C163.495 213.884 160.294 210.394 154.766 210.394C149.238 210.394 145.945 213.884 144.974 220.671Z" fill="white"/>
<path d="M199.66 213.979H186.765C188.317 204.479 195.005 199.824 206.835 199.824C220.99 199.824 228.164 204.479 228.456 213.979V231.431C228.456 245.586 219.923 251.888 206.061 252.859C193.746 253.826 185.217 248.109 185.217 236.765C185.509 224.45 194.428 221.157 207.419 219.894C212.946 219.215 215.758 217.568 215.758 214.757C215.466 211.847 212.753 210.394 207.419 210.394C202.862 210.394 200.343 211.558 199.664 213.983L199.66 213.979ZM215.948 230.851V226.101C212.943 227.36 209.452 228.426 205.67 229.204C200.533 230.175 197.915 232.596 197.915 236.378C198.207 240.449 200.339 242.391 204.41 242.391C211.585 242.391 215.948 238.127 215.948 230.854V230.851Z" fill="white"/>
<path d="M250.167 219.12V251.891H237.078V221.738C237.078 207.097 244.446 199.824 259.086 199.824C265.68 199.824 270.722 201.277 274.406 204.187C278.09 201.376 283.132 200.018 289.726 200.018C304.366 200.018 311.639 207.291 311.541 221.931V252.085H304.852C300.587 251.793 298.452 249.759 298.452 245.685V219.313C298.16 213.979 295.253 211.361 289.532 211.361C283.811 211.361 280.905 213.979 280.806 219.313V251.891H267.816V219.12C267.524 213.786 264.618 211.168 258.896 211.168C253.175 211.168 250.269 213.786 250.171 219.12H250.167Z" fill="white"/>
<path d="M62.0845 333.514C67.5135 333.514 70.2298 331.962 70.2298 328.665C70.2298 326.048 65.7683 323.915 56.9474 322.364C45.6037 320.326 39.7876 315.284 39.6891 307.238C39.6891 296.186 48.415 290.95 60.1458 290.757C66.7395 290.757 71.975 292.21 75.8524 295.12C79.6348 298.125 81.6685 302.294 81.9606 307.628H73.8152C70.8104 307.53 68.8717 306.463 68.0941 304.43C67.2215 302.199 64.6037 300.939 60.3358 300.939C55.2937 300.939 52.7745 302.298 52.7745 304.915C52.7745 307.533 56.0713 309.57 62.76 310.83C71.4859 312.575 77.2071 314.806 80.0184 317.424C82.4426 319.943 83.6072 323.046 83.6072 326.537C83.6072 339.14 73.7167 343.795 60.1422 343.795C52.968 343.795 47.5389 342.243 44.0485 339.239C40.1711 336.329 38.2324 331.871 38.2324 325.956H51.4198C51.7119 331.579 55.7828 333.517 62.0845 333.517V333.514Z" fill="white"/>
<path d="M105.907 300.743H104.549V329.151C104.549 331.283 105.808 332.448 108.331 332.448H112.307V342.24C108.137 342.627 103.581 342.627 98.7324 342.142C93.8839 341.656 91.5582 338.651 91.6532 332.93V276.891H98.3419C101.734 276.891 104.549 279.994 104.549 283.386V291.531H112.303V294.342C112.303 298.026 109.492 300.743 105.903 300.743H105.907Z" fill="white"/>
<path d="M163.298 322.362C163.298 331.187 161.068 337.003 156.511 339.814C151.955 342.432 146.913 343.79 141.385 343.79C135.857 343.79 131.301 342.337 126.843 339.427C122.382 336.616 120.154 330.993 120.154 322.362V291.529H133.05V324.98C133.05 330.701 135.959 333.512 141.776 333.512C147.592 333.512 150.502 330.701 150.502 324.98V297.929C150.403 293.665 152.44 291.529 156.708 291.529H163.302V322.362H163.298Z" fill="white"/>
<path d="M218.661 283.386V320.615C218.661 336.03 210.614 343.69 194.616 343.595C178.716 343.303 170.764 334.675 170.764 317.61C170.764 300.546 177.551 291.239 191.22 290.754C197.621 290.754 202.564 293.371 205.861 298.705V276.891H212.261C215.751 276.891 218.661 279.895 218.661 283.386ZM184.05 317.03C183.951 327.402 187.445 332.642 194.813 332.642C202.181 332.642 205.864 327.406 205.864 317.03C205.572 307.139 201.987 302.294 195.006 302.294C188.026 302.294 184.437 307.143 184.05 317.03Z" fill="white"/>
<path d="M233.597 276.891C237.861 276.891 239.899 279.023 239.804 283.192V286.975H226.908V276.891H233.597ZM233.597 291.531C237.766 291.531 239.804 293.568 239.804 297.738V342.821H226.908V291.531H233.597Z" fill="white"/>
<path d="M295.738 317.415C295.738 335.061 287.885 343.98 272.371 343.98C256.858 343.98 249.104 335.061 249.104 317.415C249.104 299.77 256.858 290.752 272.371 290.752C287.885 290.752 295.738 299.576 295.738 317.415ZM262.192 317.415C262.291 327.401 265.683 332.443 272.276 332.443C278.87 332.443 282.167 327.207 282.262 317.028C282.262 307.043 278.965 302.099 272.371 302.099C265.778 302.099 262.192 307.236 262.192 317.419V317.415Z" fill="white"/>
<path d="M326.774 333.514C332.203 333.514 334.919 331.962 334.919 328.665C334.919 326.048 330.458 323.915 321.637 322.364C310.293 320.326 304.477 315.284 304.379 307.238C304.379 296.186 313.104 290.95 324.835 290.757C331.429 290.757 336.664 292.21 340.542 295.12C344.324 298.125 346.358 302.294 346.65 307.628H338.505C335.5 307.53 333.561 306.463 332.784 304.43C331.911 302.199 329.293 300.939 325.025 300.939C319.983 300.939 317.464 302.298 317.464 304.915C317.464 307.533 320.761 309.57 327.449 310.83C336.175 312.575 341.897 314.806 344.708 317.424C347.132 319.943 348.297 323.046 348.297 326.537C348.297 339.14 338.406 343.795 324.832 343.795C317.657 343.795 312.228 342.243 308.738 339.239C304.861 336.329 302.922 331.871 302.922 325.956H316.109C316.401 331.579 320.472 333.517 326.774 333.517V333.514Z" fill="white"/>
</svg>
